<svg width="48" height="20" viewBox="0 0 48 20" fill="none" xmlns="http://www.w3.org/2000/svg">
<path d="M8.75391 0.9375L1.62891 19.4648H0.363281L7.48828 0.9375H8.75391ZM12.7031 7.94531V18H11.2969V5.32031H12.6445L12.7031 7.94531ZM12.4453 10.875L11.7656 10.5234C11.8125 9.77344 11.9531 9.07031 12.1875 8.41406C12.4297 7.75781 12.7656 7.17969 13.1953 6.67969C13.625 6.17969 14.1406 5.78906 14.7422 5.50781C15.3438 5.22656 16.0273 5.08594 16.793 5.08594C17.4102 5.08594 17.9688 5.17188 18.4688 5.34375C18.9766 5.50781 19.4062 5.76953 19.7578 6.12891C20.1172 6.48047 20.3945 6.94141 20.5898 7.51172C20.7852 8.08203 20.8828 8.76562 20.8828 9.5625V18H19.4883V9.60938C19.4883 8.76562 19.3555 8.10547 19.0898 7.62891C18.832 7.15234 18.4688 6.8125 18 6.60938C17.5391 6.40625 17.0039 6.30469 16.3945 6.30469C15.6758 6.30469 15.0664 6.45312 14.5664 6.75C14.0742 7.03906 13.6719 7.41797 13.3594 7.88672C13.0547 8.34766 12.8281 8.84375 12.6797 9.375C12.5312 9.89844 12.4531 10.3984 12.4453 10.875ZM20.8711 9.77344L19.9336 9.79688C19.9727 9.17969 20.1133 8.58984 20.3555 8.02734C20.6055 7.46484 20.9453 6.96484 21.375 6.52734C21.8047 6.08203 22.3164 5.73047 22.9102 5.47266C23.5117 5.21484 24.1875 5.08594 24.9375 5.08594C25.5938 5.08594 26.1797 5.17578 26.6953 5.35547C27.2109 5.52734 27.6445 5.80469 27.9961 6.1875C28.3555 6.5625 28.6289 7.04297 28.8164 7.62891C29.0039 8.21484 29.0977 8.91797 29.0977 9.73828V18H27.6914V9.72656C27.6914 8.82812 27.5586 8.13281 27.293 7.64062C27.0352 7.14062 26.6758 6.79297 26.2148 6.59766C25.7539 6.40234 25.2148 6.30469 24.5977 6.30469C23.9883 6.3125 23.4531 6.42578 22.9922 6.64453C22.5312 6.85547 22.1445 7.13672 21.832 7.48828C21.5273 7.83203 21.293 8.20312 21.1289 8.60156C20.9727 9 20.8867 9.39062 20.8711 9.77344ZM31.8867 11.8594V11.4727C31.8867 10.5508 32.0195 9.69922 32.2852 8.91797C32.5508 8.13672 32.9297 7.46094 33.4219 6.89062C33.9219 6.32031 34.5195 5.87891 35.2148 5.56641C35.9102 5.24609 36.6836 5.08594 37.5352 5.08594C38.3945 5.08594 39.1719 5.24609 39.8672 5.56641C40.5625 5.87891 41.1602 6.32031 41.6602 6.89062C42.1602 7.46094 42.543 8.13672 42.8086 8.91797C43.0742 9.69922 43.207 10.5508 43.207 11.4727V11.8594C43.207 12.7812 43.0742 13.6328 42.8086 14.4141C42.543 15.1875 42.1602 15.8594 41.6602 16.4297C41.168 17 40.5742 17.4453 39.8789 17.7656C39.1836 18.0781 38.4102 18.2344 37.5586 18.2344C36.6992 18.2344 35.9219 18.0781 35.2266 17.7656C34.5312 17.4453 33.9336 17 33.4336 16.4297C32.9336 15.8594 32.5508 15.1875 32.2852 14.4141C32.0195 13.6328 31.8867 12.7812 31.8867 11.8594ZM33.2812 11.4727V11.8594C33.2812 12.5547 33.375 13.2148 33.5625 13.8398C33.75 14.457 34.0234 15.0078 34.3828 15.4922C34.7422 15.9688 35.1875 16.3438 35.7188 16.6172C36.25 16.8906 36.8633 17.0273 37.5586 17.0273C38.2461 17.0273 38.8516 16.8906 39.375 16.6172C39.9062 16.3438 40.3516 15.9688 40.7109 15.4922C41.0703 15.0078 41.3398 14.457 41.5195 13.8398C41.707 13.2148 41.8008 12.5547 41.8008 11.8594V11.4727C41.8008 10.7852 41.707 10.1328 41.5195 9.51562C41.3398 8.89844 41.0664 8.34766 40.6992 7.86328C40.3398 7.37891 39.8945 6.99609 39.3633 6.71484C38.832 6.43359 38.2227 6.29297 37.5352 6.29297C36.8477 6.29297 36.2383 6.43359 35.707 6.71484C35.1836 6.99609 34.7383 7.37891 34.3711 7.86328C34.0117 8.34766 33.7383 8.89844 33.5508 9.51562C33.3711 10.1328 33.2812 10.7852 33.2812 11.4727ZM45.9844 17.1445C45.9844 16.8711 46.0703 16.6406 46.2422 16.4531C46.4219 16.2578 46.6641 16.1602 46.9688 16.1602C47.2812 16.1602 47.5273 16.2539 47.707 16.4414C47.8867 16.6289 47.9766 16.8633 47.9766 17.1445C47.9766 17.4102 47.8867 17.6367 47.707 17.8242C47.5273 18.0117 47.2812 18.1055 46.9688 18.1055C46.6641 18.1055 46.4219 18.0117 46.2422 17.8242C46.0703 17.6367 45.9844 17.4102 45.9844 17.1445Z" fill="#22252E"/>
</svg>
